<svg xmlns="http://www.w3.org/2000/svg" viewBox="0 0 50 20" role="img" aria-label="Apple Pay">
  <text x="0" y="15" font-family="Arial, sans-serif" font-weight="600" font-size="13" fill="#000"> Pay</text>
  <path d="M10.5 4.5c-.6.7-1.5 1.2-2.4 1.1-.1-.9.3-1.8 1-2.5.6-.7 1.6-1.2 2.4-1.2.1 1-.3 1.9-1 2.6zm.9 1.4c-1.3-.1-2.4.7-3 .7s-1.6-.7-2.6-.7c-1.3 0-2.5.8-3.2 2-.1.1-.2.3-.3.4-1.3 2.2-.3 5.4.9 7.2.6.9 1.3 1.9 2.3 1.9.9 0 1.3-.6 2.4-.6 1.1 0 1.4.6 2.4.6 1 0 1.6-.9 2.2-1.8.7-1 1-2 1-2.1-.1 0-2-.8-2-3.1 0-2 1.6-2.9 1.7-3-1-.6-2.3-1.5-2.3-3.5z" fill="#000" transform="translate(2,1) scale(0.85)"/>
</svg>
